<?xml version="1.0" standalone="no"?>
<!DOCTYPE svg PUBLIC "-//W3C//DTD SVG 20010904//EN"
 "http://www.w3.org/TR/2001/REC-SVG-20010904/DTD/svg10.dtd">
<svg version="1.0" xmlns="http://www.w3.org/2000/svg"
 width="120.000000pt" height="30.000000pt" viewBox="0 0 120.000000 30.000000"
 preserveAspectRatio="xMidYMid meet">
<metadata>
Created by potrace 1.10, written by Peter Selinger 2001-2011
</metadata>
<g transform="translate(0.000000,30.000000) scale(0.100000,-0.100000)"
fill="#000000" stroke="none">
<path d="M334 229 c-10 -17 13 -36 27 -22 12 12 4 33 -11 33 -5 0 -12 -5 -16
-11z"/>
<path d="M705 220 c5 -16 2 -20 -20 -20 -34 0 -53 -39 -37 -75 10 -22 18 -25
63 -25 43 0 50 3 45 16 -3 9 -6 40 -6 70 0 51 -1 54 -26 54 -21 0 -24 -4 -19
-20z m0 -68 c0 -31 -19 -28 -23 4 -3 18 0 25 10 22 7 -3 13 -14 13 -26z"/>
<path d="M774 229 c-10 -17 13 -36 27 -22 12 12 4 33 -11 33 -5 0 -12 -5 -16
-11z"/>
<path d="M124 214 c7 -19 -13 -94 -26 -94 -4 0 -8 -4 -8 -10 0 -5 14 -10 31
-10 26 0 29 3 24 20 -5 16 -2 20 15 20 17 0 20 -4 15 -20 -6 -19 -2 -20 59
-20 l66 0 -6 30 c-5 22 -2 31 10 36 30 12 17 30 -24 31 l-40 2 6 -40 c10 -59
-12 -49 -32 16 -17 54 -18 55 -57 55 -32 0 -38 -3 -33 -16z m42 -51 c-10 -10
-19 5 -10 18 6 11 8 11 12 0 2 -7 1 -15 -2 -18z"/>
<path d="M524 214 c7 -19 -13 -94 -26 -94 -4 0 -8 -4 -8 -10 0 -5 14 -10 31
-10 26 0 29 3 24 20 -5 16 -2 20 15 20 17 0 20 -4 15 -20 -6 -18 -2 -20 30
-20 25 0 35 4 32 13 -3 6 -14 36 -23 65 -17 51 -18 52 -57 52 -32 0 -38 -3
-33 -16z m42 -51 c-10 -10 -19 5 -10 18 6 11 8 11 12 0 2 -7 1 -15 -2 -18z"/>
<path d="M836 205 c-14 -15 -14 -47 0 -92 4 -15 54 -18 54 -3 0 6 -4 10 -10
10 -5 0 -10 11 -10 25 0 36 24 31 43 -10 21 -43 22 -59 3 -52 -8 3 -16 -2 -19
-14 -4 -15 0 -19 18 -19 27 0 36 11 60 70 9 25 19 51 22 58 4 9 -12 12 -61 12
-52 0 -66 3 -66 15 0 19 -14 19 -34 0z m124 -45 c0 -5 -4 -10 -10 -10 -5 0
-10 5 -10 10 0 6 5 10 10 10 6 0 10 -4 10 -10z"/>
<path d="M397 182 c-44 -48 17 -118 72 -83 21 13 5 29 -24 23 -15 -2 -25 0
-25 7 0 6 14 11 30 11 22 0 30 5 30 18 0 41 -54 57 -83 24z m50 -18 c-3 -3
-12 -4 -19 -1 -8 3 -5 6 6 6 11 1 17 -2 13 -5z"/>
<path d="M1017 193 c-16 -16 -5 -30 21 -27 25 3 25 3 3 -4 -13 -4 -29 -15 -35
-25 -15 -24 5 -35 60 -35 l42 0 -5 36 c-3 21 -10 43 -16 50 -10 13 -59 17 -70
5z m43 -63 c0 -5 -4 -10 -10 -10 -5 0 -10 5 -10 10 0 6 5 10 10 10 6 0 10 -4
10 -10z"/>
<path d="M330 145 c0 -42 2 -45 26 -45 20 0 25 4 20 16 -3 9 -6 29 -6 45 0 22
-5 29 -20 29 -17 0 -20 -7 -20 -45z"/>
<path d="M770 145 c0 -42 2 -45 26 -45 20 0 25 4 20 16 -3 9 -6 29 -6 45 0 22
-5 29 -20 29 -17 0 -20 -7 -20 -45z"/>
</g>
</svg>
